<?xml version="1.0" encoding="utf-8"?>
<!-- Generator: Adobe Illustrator 21.1.0, SVG Export Plug-In . SVG Version: 6.00 Build 0)  -->
<svg version="1.1" id="Ebene_1" xmlns="http://www.w3.org/2000/svg" xmlns:xlink="http://www.w3.org/1999/xlink" x="0px" y="0px"
	 viewBox="0 0 24.6 24.6" style="enable-background:new 0 0 24.6 24.6;" xml:space="preserve">
<style type="text/css">
	.st0{fill:#FFFFFF;}
</style>
<g>
	<path class="st0" d="M24.1,0l0.5,0.5l-2.2,2.2L19,6.4l-2.9,2.9l-2.8,2.8l-3.7,3.7l-3.1,2.8l-6.1,6.1L0,24.1l5.4-5.5l5.5-5.2
		l3.3-3.4l4.3-4.3l3.4-3.6L24.1,0z"/>
</g>
<g>
	<path class="st0" d="M24.6,24.1l-0.5,0.5l-2.2-2.2L18.2,19l-2.9-2.9l-2.8-2.8L8.9,9.7L6.1,6.6L0,0.5L0.5,0L6,5.4l5.2,5.5l3.4,3.3
		l4.3,4.3l3.6,3.4L24.6,24.1z"/>
</g>
</svg>
