<?xml version="1.0" encoding="utf-8"?>
<!-- Generator: Adobe Illustrator 21.1.0, SVG Export Plug-In . SVG Version: 6.00 Build 0)  -->
<svg version="1.1" id="Ebene_1" xmlns="http://www.w3.org/2000/svg" xmlns:xlink="http://www.w3.org/1999/xlink" x="0px" y="0px"
	 viewBox="0 0 40 17.2" style="enable-background:new 0 0 40 17.2;" xml:space="preserve">
<style type="text/css">
	.st0{fill:#FFFFFF;}
</style>
<g>
	<path class="st0" d="M40,0.1V1h-3.6l-5.9,0.2h-4.8H21h-6.1L10.1,1H0V0.1L9,0l8.9,0.2l5.6-0.1h7.1L36.3,0L40,0.1z"/>
</g>
<g>
	<path class="st0" d="M40,8.1V9h-3.6l-5.9,0.2h-4.8H21h-6.1L10.1,9H0V8.1L9,8l8.9,0.2l5.6-0.1h7.1L36.3,8L40,8.1z"/>
</g>
<g>
	<path class="st0" d="M40,16.1V17h-3.6l-5.9,0.2h-4.8H21h-6.1L10.1,17H0v-0.9L9,16l8.9,0.2l5.6-0.1h7.1l5.8-0.1L40,16.1z"/>
</g>
</svg>
