<svg id="Ebene_1" xmlns="http://www.w3.org/2000/svg" viewBox="0 0 294 56"><style>.st0{fill:#E6B980;} .st1{fill:#FFFFFF;}</style><path class="st0" d="M-.1 28.2L.3.2 11.7.1l-.1 5.2h-7c.1 3.6.2 5.9.3 7.1.6 0 1.5 0 2.7.1 1.2 0 2.1.1 2.5.1v4.5L4.7 17v6.7h5.2V29l-10-.8zM19.3 2.8L35 2.2l-.3 4.2-4.6.3-.2 21.9-4.8.1L25 6.9l-5.1.1-.6-4.2zM35.8 28.6L46.7.7 55 28.1l-4.7.2-1.6-7.6-5.7.1-3.3 7.7h-3.9zM61.6 14.3v-1.1c0-1.3.2-2.4.5-3.5s.7-2 1.2-2.7c.5-.8 1.1-1.4 1.8-2 .7-.6 1.4-1.1 2.2-1.4.8-.4 1.6-.7 2.4-.9.9-.2 1.7-.4 2.5-.5.9-.1 1.8-.2 2.6-.2.5 0 1.3 0 2.4.1l-.6 5.1c-.6 0-1.1-.1-1.6-.1-.6 0-1.2 0-1.8.1-.6.1-1.3.2-2.2.5-.8.2-1.6.6-2.2.9s-1.2.9-1.8 1.6c-.5.7-.8 1.5-.9 2.5 0 .9-.1 1.5-.1 1.9 0 3 .5 5.3 1.6 6.9 1 1.5 2.2 2.2 3.7 2.2h.4c.5-.1.9-.4 1.2-.8s.6-.9.8-1.4.3-1 .5-1.5c.1-.5.2-.9.2-1.3l.1-.5c-.3 0-.9 0-1.6-.1-.8-.1-1.3-.1-1.6-.1v-4.2h8c.1 1.1.2 2.1.2 3.2 0 .9 0 1.7-.1 2.5s-.3 1.7-.5 2.7c-.3 1-.7 1.9-1.1 2.7-.5.8-1.1 1.5-1.9 2.1s-1.8 1-2.9 1.3c-.7.1-1.4.2-2.1.2-3 0-5.3-1.2-6.8-3.7-1.7-2.6-2.5-6-2.5-10.5zM90.6 28.2l.2-25.8 10.7-.1-.2 4.8H95c0 .5.1 3.3.2 8.4.5 0 1.3 0 2.5.1 1.1 0 1.9.1 2.3.1v4.2l-4.9-.2v4.2h4.7V29l-9.2-.8zM127.1 28.2l.4-28 11.4-.1-.1 5.2h-7c.1 3.6.2 5.9.3 7.1.6 0 1.5 0 2.7.1 1.2 0 2.1.1 2.5.1v4.5l-5.4-.1v6.7h5.2V29l-10-.8zM148.7 29l1-26.9 3.8-.4-.3 26.3-4.5 1zM163.2 8.7c0-.8.2-1.6.5-2.3.3-.7.6-1.3 1.1-1.7.4-.5.9-.9 1.5-1.2.6-.3 1.2-.6 1.8-.8s1.2-.3 1.9-.5 1.3-.2 1.7-.2h1.5l1.7.1-.4 6c-1.1-.2-2-.3-2.6-.3-2.6 0-4.1.6-4.3 1.7 0 .2 0 .5.3.8s.5.6.7.8c.3.2.6.5 1.1.9.7.5 1.2 1 1.7 1.4s1 1 1.6 1.7c.6.7 1 1.4 1.4 2.3.4.8.6 1.8.7 2.7v.3c0 .9-.1 1.8-.4 2.6-.3.9-.8 1.7-1.4 2.3-.6.6-1.3 1.1-2 1.6-.8.4-1.5.8-2.3 1-.8.2-1.6.3-2.3.3-1.3 0-2.4-.3-3.3-.9v-.2c0-.2 0-.6.1-1.1l.3-2.4.2-1.2c1.3.3 2.4.5 3.3.5 2.3 0 3.5-.8 3.5-2.5 0-.4-.1-.8-.2-1.2s-.2-.7-.4-1c-.1-.3-.4-.5-.7-.9-.3-.3-.6-.5-.7-.7-.2-.2-.5-.4-.9-.7-.1-.1-.2-.1-.2-.2-.5-.4-1-.7-1.3-.9-.3-.2-.7-.6-1.1-1-.4-.5-.8-.9-1-1.3-.2-.4-.4-1-.6-1.6-.4-.7-.5-1.4-.5-2.2zM185.1 28.2l.2-25.8 10.7-.1-.2 4.8h-6.4c0 .5.1 3.3.2 8.4.5 0 1.3 0 2.5.1 1.1 0 1.9.1 2.3.1v4.2l-4.9-.2v4.2h4.7V29l-9.1-.8zM206.7 28.2l.5-24.8 4.4-1 5.6 17.7 1.3-17.7 4.4.5-1.4 25.2-5.8.4-4-12.1c-.3 7.9-.4 12-.4 12.4l-4.6-.6zM230 28.6L240.9.8l8.3 27.3-4.7.2-1.6-7.6-5.7.1-3.3 7.7H230zM255.3 15.7c.1-1.7.3-3.2.6-4.5.3-1.4.8-2.5 1.3-3.4s1.1-1.7 1.8-2.5 1.4-1.3 2.1-1.7c.7-.4 1.5-.7 2.3-1 .8-.2 1.5-.4 2.2-.5s1.3-.1 1.9-.1c.4 0 .9 0 1.3.1.5 0 .8.1 1 .1l.4.1v4c-.5 0-1.1-.1-1.7-.1-2.8 0-4.9.8-6.4 2.4-1.5 1.6-2.2 3.9-2.2 7v.2c0 1 .1 2 .4 2.9.3.9.8 1.6 1.3 2.2s1.2 1 1.8 1.4 1.3.6 2 .8c.7.2 1.3.3 1.9.4.5.1.9.1 1.2.1h.6l.1 4.6-.5.5h-1.2c-.6 0-1.1 0-1.7-.1-.6-.1-1.3-.2-2.2-.4-.9-.2-1.7-.5-2.4-.9s-1.5-.9-2.3-1.5c-.8-.7-1.5-1.4-2-2.3-.6-.9-1-2-1.3-3.4-.3-1.3-.5-2.6-.5-4.2.2 0 .2-.1.2-.2zM279.3 28.8l1.2-26.4 4.5.9-.3 10.4c.5 0 1.2.1 2.2.1.9 0 1.7.1 2.3.1l1-10.7 3.9-.2-.1 25.4-4.4.1-.1-9.4-5.6.1-.7 9.6h-3.9z"/><g><path class="st1" d="M60.4 55.8l.4-10.6h1c.3 0 .6.1.9.1.3.1.6.1 1 .3s.6.3.9.4.4.4.6.7c.1.2.2.4.2.7v.3c0 .3-.1.6-.2.8s-.2.5-.4.6-.3.3-.5.5-.3.3-.5.4c-.1.1-.3.2-.5.2-.2.1-.3.1-.3.1s-.1 0-.2.1c.7.1 1.3.4 1.8.8s.7 1 .8 1.8c0 .3-.1.5-.2.7-.1.2-.3.4-.5.6-.2.2-.4.3-.6.5s-.5.3-.8.4c-.3.1-.5.2-.8.3-.3.1-.5.1-.8.2-.2 0-.5.1-.6.1s-.3 0-.4.1l-.3-.1zM68.6 55.5l.1-9.5 4-.1-.1 1.8h-2.4c0 .2 0 1.2.1 3.1h1.8v1.6l-1.8-.1V54H72v1.9l-3.4-.4zM76.9 55.7l.1-9.8c1.6 0 2.6.1 2.8.2 0 0 .1 0 .2.1.1 0 .2.1.4.2s.4.3.5.4c.1.2.3.4.4.7.1.3.1.6.1.9v.2c0 .3-.1.6-.2.9s-.1.5-.2.7c-.1.2-.2.4-.4.6-.1.2-.2.3-.3.4l-.1.1 2.2 4.3-2-.2-1.7-3-.4 3.2-1.4.1zM85.5 46.1h1.7L87 54c.2 0 .7-.1 1.2-.1.6 0 1-.1 1.3-.1l.1 2-4-.1-.1-9.6zM93 55.9l.4-9.9 1.4-.2-.1 9.7-1.7.4zM98.8 55.6l.2-9.2 1.6-.4 2 6.5.5-6.5 1.6.2-.5 9.3-2.2.2-1.5-4.4c-.1 2.9-.2 4.4-.2 4.6l-1.5-.3zM106.9 55.7l3.5-10.1h1.7l-3.7 10-1.5.1zM114 50.7c0-.7.1-1.2.2-1.8.1-.5.3-1 .5-1.3.2-.4.4-.7.7-1 .3-.3.5-.5.8-.6.3-.2.5-.3.8-.4s.6-.2.8-.2h1.2c.2 0 .3 0 .4.1h.1V47h-.6c-1 0-1.8.3-2.4.9-.6.6-.8 1.5-.8 2.7v.1c0 .4.1.8.2 1.1.1.4.3.7.5.9s.4.4.7.5c.2.2.5.3.7.3.2.1.5.1.7.1h.8l.1 1.8-.2.2h-1s-.5-.1-.8-.2l-.9-.3c-.3-.1-.6-.3-.9-.6-.3-.3-.5-.6-.8-.9-.2-.3-.4-.8-.5-1.3-.1-.5-.2-1-.2-1.6-.1.1-.1 0-.1 0zM122.9 55.8l.4-9.7 1.7.3-.1 3.8h1.6l.4-3.9 1.4-.1v9.3l-1.6.1v-3.4h-2.1l-.3 3.5-1.4.1zM131.5 55.7l4-10.2 3 10.1-1.7.1-.6-2.8h-2.1l-1.2 2.8h-1.4zM142 55.7l.1-9.8c1.6 0 2.6.1 2.8.2 0 0 .1 0 .2.1.1 0 .2.1.4.2s.4.3.5.4c.1.2.3.4.4.7.1.3.1.6.1.9v.2c0 .3-.1.6-.2.9s-.2.5-.3.8c-.1.2-.2.4-.4.6-.1.2-.2.3-.3.4l-.1.1 2.2 4.3-2-.2-1.7-3-.4 3.2H142zM150.6 46.1h1.7l-.2 7.9c.2 0 .7-.1 1.2-.1.6 0 1-.1 1.3-.1l.1 2-4-.1-.1-9.6zM157.5 51.1v-.6c0-.4.1-.9.1-1.3s.2-.7.3-1 .2-.5.4-.8.3-.4.4-.6c.2-.1.3-.3.5-.4.2-.1.3-.2.4-.3s.3-.1.4-.1c.1 0 .2-.1.3-.1h.2c.5.1.9.2 1.2.4s.7.5.9.9c.3.4.5.9.6 1.5.1.5.2 1.2.2 1.9v.3c0 .6-.1 1.2-.2 1.7s-.3.9-.5 1.3-.4.6-.7.8c-.3.2-.5.4-.8.5s-.5.1-.8.1c-.3 0-.5 0-.8-.1s-.5-.2-.8-.4-.5-.5-.7-.8c-.2-.3-.3-.8-.5-1.3s-.1-.9-.1-1.6zM166.6 46.2l5.8-.2-.1 1.6-1.7.1-.1 8.1h-1.8v-8l-1.9.1-.2-1.7zM174.5 46.2l5.8-.2-.1 1.6-1.7.1-.1 8.1h-1.8v-8l-1.9.1-.2-1.7zM183.3 55.5l.1-9.5 4-.1-.1 1.8h-2.4c0 .2 0 1.2.1 3.1h1.8v1.6l-1.8-.1V54h1.7v1.9l-3.4-.4zM191.2 55.6l.2-9.2 1.6-.4 2 6.5.5-6.5 1.6.2-.5 9.3-2.2.2-1.5-4.4c-.1 2.9-.2 4.4-.2 4.6l-1.5-.3zM201 55.8v-9.9H202.2c.2 0 .4 0 .7.1.3 0 .5.1.8.2.2.1.5.2.7.3.2.1.4.3.6.4.2.2.3.3.4.6.1.2.1.4.1.5v.2c0 .3-.1.5-.2.8-.1.3-.3.5-.4.7l-.5.5c-.2.1-.3.2-.4.3l-.2.1c.9.3 1.4 1.1 1.5 2.4v.2c0 .2 0 .4-.1.6-.1.2-.2.4-.4.6-.2.2-.3.3-.6.5s-.4.3-.7.4-.5.2-.7.3c-.2.1-.5.1-.7.2s-.4.1-.6.1h-.4l-.1-.1zM208.8 51.7v-.2l.2-5.3h1.4c-.1 3-.1 4.8-.1 5.3 0 .2 0 .4.1.6.1.2.1.5.2.7s.3.4.5.6c.2.2.4.2.7.2.2 0 .4-.1.6-.2s.3-.3.4-.5l.3-.6s.1-.4.1-.5c0-.1 0-.2.1-.3l.3-5.5 1.7.2c-.1 2.2-.2 3.9-.3 5.1-.1.3-.1.7-.2 1.1s-.2.8-.3 1.1c-.2.4-.4.8-.6 1.1s-.5.6-.9.8c-.3.2-.7.3-1.1.4-.4 0-.7-.1-1-.2s-.6-.4-.7-.6c-.2-.3-.4-.5-.5-.8l-.3-.9s-.1-.6-.1-.8c-.4-.4-.5-.6-.5-.8zM219.1 55.7l.1-9.8c1.6 0 2.6.1 2.8.2 0 0 .1 0 .2.1.1 0 .2.1.4.2s.4.3.5.4c.1.2.3.4.4.7.1.3.1.6.1.9v.2c0 .3-.1.6-.2.9s-.2.5-.3.8c-.1.2-.2.4-.4.6-.1.2-.2.3-.3.4l-.1.1 2.2 4.3-2-.2-1.7-3-.4 3.2h-1.3zM227 50.4V50c0-.5.1-.9.2-1.3s.3-.7.4-1c.2-.3.4-.5.7-.7.3-.2.5-.4.8-.5l.9-.3c.3-.1.6-.1.9-.2.3 0 .6-.1.9-.1h.9l-.2 1.9H231.2s-.5.1-.8.2-.6.2-.8.3c-.2.1-.5.3-.6.6-.2.3-.3.6-.3.9v.7c0 1.1.2 1.9.6 2.5.4.5.8.8 1.3.8h.2c.2 0 .3-.1.4-.3.1-.2.2-.3.3-.5.1-.2.1-.4.2-.6 0-.2.1-.3.1-.5v-.2h-1.2v-1.6h2.9c0 .4.1.8.1 1.2v.9c0 .3-.1.6-.2 1s-.2.7-.4 1c-.2.3-.4.5-.7.8-.3.2-.7.4-1.1.5-.2 0-.5.1-.8.1-1.1 0-1.9-.5-2.5-1.4-.6-.9-.9-2.1-.9-3.8z"/></g></svg>