<?xml version="1.0" encoding="utf-8"?>
<!-- Generator: Adobe Illustrator 21.1.0, SVG Export Plug-In . SVG Version: 6.00 Build 0)  -->
<svg version="1.1" id="Ebene_1" xmlns="http://www.w3.org/2000/svg" xmlns:xlink="http://www.w3.org/1999/xlink" x="0px" y="0px"
	 viewBox="0 0 140 15.1" style="enable-background:new 0 0 140 15.1;" xml:space="preserve">
<style type="text/css">
	.st0{fill:#E6B980;}
</style>
<g>
	<path class="st0" d="M0,0.5c2.5,0.1,3.8,0.2,4,0.3h0.1C4.2,0.9,4.3,1,4.4,1c0.2,0.1,0.3,0.1,0.5,0.2C5,1.4,5.2,1.5,5.4,1.7
		c0.2,0.2,0.3,0.4,0.5,0.6S6,2.8,6.1,3.2S6.3,4,6.3,4.4S6.2,5.1,6.1,5.5s-0.4,0.7-0.6,1C5.3,6.7,5.1,7,4.8,7.2
		C4.5,7.5,4.3,7.7,4,7.8C3.7,8,3.5,8.1,3.3,8.2C3.1,8.4,2.9,8.5,2.7,8.5L2.5,8.6c0,0.7,0,1.7,0,3.1s0,2.5,0,3.2l-2,0.1L0,0.5z"/>
	<path class="st0" d="M7.5,14.8l5.7-14.5l4.3,14.2L15,14.6l-0.9-3.9l-3,0.1l-1.7,4C9.4,14.8,7.5,14.8,7.5,14.8z"/>
	<path class="st0" d="M21.1,9.2V8.9l0.2-7.5h2c-0.1,4.3-0.2,6.8-0.2,7.5c0,0.3,0,0.5,0.1,0.9c0.1,0.3,0.2,0.6,0.3,1
		c0.1,0.3,0.4,0.6,0.6,0.9c0.3,0.2,0.6,0.3,1,0.4c0.3,0,0.5-0.1,0.8-0.3c0.2-0.2,0.4-0.4,0.6-0.7c0.1-0.2,0.3-0.5,0.4-0.8
		s0.2-0.5,0.2-0.7s0.1-0.3,0.1-0.4l0.4-7.8L30,1.5c-0.2,3.2-0.3,5.6-0.5,7.2c-0.1,0.5-0.2,1-0.3,1.5c-0.1,0.5-0.3,1.1-0.5,1.6
		c-0.2,0.6-0.5,1.1-0.8,1.5s-0.7,0.8-1.2,1.1s-1,0.5-1.6,0.5c-0.5,0-1-0.1-1.5-0.3c-0.4-0.2-0.8-0.5-1.1-0.9
		c-0.3-0.4-0.5-0.8-0.7-1.2s-0.3-0.9-0.4-1.3c-0.1-0.4-0.2-0.8-0.2-1.2C21.2,9.7,21.1,9.5,21.1,9.2z"/>
	<path class="st0" d="M35.1,1.2h2.4l-0.2,11.2c0.3,0,0.9-0.1,1.7-0.1s1.4-0.1,1.8-0.1l0.1,2.8l-5.6-0.2L35.1,1.2z"/>
	<path class="st0" d="M53,14.6L53.2,0h6l-0.1,2.7h-3.7c0.1,1.9,0.1,3.1,0.1,3.7c0.3,0,0.8,0,1.4,0c0.6,0,1.1,0,1.3,0v2.3l-2.8-0.1
		v3.5h2.7V15L53,14.6z"/>
	<path class="st0" d="M64.3,15.1l0.5-14l2-0.2l-0.2,13.7L64.3,15.1z"/>
	<path class="st0" d="M71.8,4.5c0-0.4,0.1-0.8,0.2-1.2s0.3-0.7,0.6-0.9c0.2-0.2,0.5-0.4,0.8-0.6s0.6-0.3,0.9-0.4
		c0.3-0.1,0.6-0.2,1-0.2C75.7,1.1,76,1,76.3,1s0.5,0,0.8,0H78l-0.2,3.1C77.2,4,76.8,4,76.4,4c-1.4,0-2.1,0.3-2.2,0.9
		c0,0.1,0,0.3,0.1,0.4c0.1,0.2,0.2,0.3,0.4,0.4C74.8,5.8,75,6,75.3,6.2c0.3,0.3,0.6,0.5,0.9,0.7s0.5,0.5,0.8,0.9
		c0.3,0.4,0.5,0.8,0.7,1.2c0.1,0.5,0.3,1,0.3,1.5c0,0.1,0,0.1,0,0.2c0,0.5-0.1,0.9-0.2,1.4c-0.2,0.5-0.4,0.9-0.7,1.2
		c-0.3,0.3-0.7,0.6-1,0.8c-0.4,0.2-0.8,0.4-1.2,0.5c-0.4,0.1-0.8,0.2-1.2,0.2c-0.7,0-1.2-0.2-1.7-0.5c0,0,0,0,0-0.1s0-0.3,0-0.6
		c0-0.4,0.1-0.8,0.2-1.2l0.1-0.6c0.7,0.2,1.3,0.3,1.7,0.3c1.2,0,1.8-0.4,1.8-1.3c0-0.2,0-0.4-0.1-0.6c-0.1-0.2-0.1-0.4-0.2-0.5
		s-0.2-0.3-0.4-0.4c-0.2-0.2-0.3-0.3-0.4-0.4c-0.1-0.1-0.3-0.2-0.5-0.4c-0.1,0-0.1-0.1-0.1-0.1c-0.3-0.2-0.5-0.4-0.7-0.5
		s-0.3-0.3-0.6-0.5c-0.2-0.2-0.4-0.5-0.5-0.7C72.2,6.3,72.1,6,72,5.6C71.9,5.3,71.8,4.9,71.8,4.5z"/>
	<path class="st0" d="M83.3,14.7l0.1-13.4L89,1.2l-0.1,2.5h-3.3c0,0.3,0.1,1.7,0.1,4.4c0.3,0,0.7,0,1.3,0c0.6,0,1,0,1.2,0v2.2
		l-2.5-0.1v2.2h2.5v2.7L83.3,14.7z"/>
	<path class="st0" d="M94.5,14.7l0.3-12.9l2.3-0.5l2.9,9.2l0.7-9.2l2.3,0.3l-0.7,13.1l-3,0.2L97,8.5c-0.1,4.1-0.2,6.3-0.2,6.5
		L94.5,14.7z"/>
	<path class="st0" d="M106.6,14.8l5.7-14.5l4.3,14.2l-2.5,0.1l-0.9-3.9l-3,0.1l-1.7,4C108.5,14.8,106.6,14.8,106.6,14.8z"/>
	<path class="st0" d="M119.8,8.2c0-0.9,0.1-1.7,0.3-2.4c0.2-0.7,0.4-1.3,0.7-1.8c0.3-0.5,0.6-0.9,1-1.3s0.7-0.7,1.1-0.9
		s0.8-0.4,1.2-0.5c0.4-0.1,0.8-0.2,1.1-0.3c0.3,0,0.7-0.1,1-0.1c0.2,0,0.5,0,0.7,0s0.4,0.1,0.5,0.1h0.2v2.1c-0.3,0-0.6,0-0.9,0
		c-1.4,0-2.6,0.4-3.3,1.3s-1.1,2.1-1.1,3.6v0.1c0,0.5,0.1,1,0.2,1.5c0.2,0.5,0.4,0.9,0.7,1.1c0.3,0.3,0.6,0.5,1,0.7
		c0.3,0.2,0.7,0.3,1,0.4c0.4,0.1,0.7,0.1,1,0.2c0.3,0,0.5,0.1,0.6,0h0.1h0.3l0.1,2.4l-0.3,0.3c-0.2,0-0.4,0-0.6,0
		c-0.3,0-0.6,0-0.9,0s-0.7-0.1-1.1-0.2c-0.5-0.1-0.9-0.3-1.3-0.4c-0.4-0.2-0.8-0.4-1.2-0.8c-0.4-0.3-0.8-0.7-1.1-1.2
		c-0.3-0.5-0.5-1-0.7-1.7S119.9,9,119.8,8.2C119.8,8.3,119.8,8.2,119.8,8.2z"/>
	<path class="st0" d="M132.3,15l0.6-13.8l2.4,0.5l-0.1,5.4c0.3,0,0.6,0,1.1,0.1c0.5,0,0.9,0,1.2,0.1l0.5-5.6l2-0.1v13.2l-2.3,0.1V10
		l-2.9,0.1l-0.4,5L132.3,15z"/>
</g>
</svg>
