<svg id="Ebene_1" xmlns="http://www.w3.org/2000/svg" viewBox="0 0 371 56"><style>.st0{fill:#E6B980;} .st1{fill:#FFFFFF;} .st2{fill:none;}</style><path class="st0" d="M3.4 7.6c0-.9.2-1.7.5-2.4S4.5 3.9 5 3.4c.4-.5.9-.9 1.5-1.3.5-.4 1.1-.6 1.7-.8S9.4.9 10.1.8s1.3-.2 1.7-.2 1-.1 1.5-.1l1.7.1-.4 6.3c-1.1-.2-2-.3-2.6-.3-2.6 0-4 .6-4.2 1.9v.2c0 .3.1.6.4.9.3.4.9.9 1.7 1.6.6.5 1.2 1 1.7 1.5s1 1.1 1.5 1.8c.6.7 1 1.5 1.3 2.5.3.9.6 1.9.6 2.9 0 1.1-.2 2-.5 3-.4.9-.8 1.7-1.4 2.4-.6.7-1.2 1.2-2 1.7-.7.5-1.5.8-2.3 1s-1.5.3-2.3.3c-1.4 0-2.4-.3-3.2-.9 0-.1-.1-.3-.1-.6V26c0-.8.1-1.6.3-2.4l.1-1.3c1.2.3 2.3.5 3.4.5 2.3 0 3.4-.9 3.4-2.7 0-.5-.1-1-.2-1.4-.1-.4-.3-.8-.4-1.1-.1-.3-.4-.6-.7-1s-.6-.6-.8-.8-.5-.4-1-.8-1-.7-1.3-1-.7-.6-1.1-1.1-.8-.9-1-1.4c-.2-.5-.4-1-.6-1.7.1-.6.1-1.3.1-2.2zM22.8 2.8l15.7-.6-.3 4.2-4.6.3-.2 21.9-4.8.1-.1-21.8-5.1.1-.6-4.2zM46.3 17.8v-.6l.4-14.3h3.8c-.2 8.2-.3 13-.3 14.3 0 .5.1 1 .2 1.6.1.6.3 1.2.6 1.9s.7 1.2 1.2 1.6 1.2.7 1.8.7c.5 0 1.1-.3 1.5-.6.5-.4.8-.8 1.1-1.3s.5-1 .7-1.6.3-1 .4-1.3c.1-.3.1-.6.2-.8l.7-14.9 4.6.4c-.2 6.1-.5 10.7-.8 13.8-.2.9-.3 1.9-.5 2.9s-.5 2-.9 3.1c-.5 1.1-1 2-1.6 2.9S58 27.2 57 27.8c-.9.6-2 .9-3.1 1-1 0-2-.2-2.8-.6s-1.5-1-2-1.7-1-1.4-1.3-2.3c-.4-.8-.6-1.7-.8-2.5s-.3-1.6-.4-2.3c-.2-.6-.3-1.2-.3-1.6zM73.8 29.3l.8-26.5.5-.5h.6c.3 0 .8.1 1.5.2s1.5.3 2.1.4c.7.2 1.4.5 2.2.9.8.4 1.4.9 2 1.4.8 1 1.4 1.7 1.7 2.1 1.1 1.7 1.6 4 1.6 6.9 0 1.4-.1 3-.3 4.8-.1 1.1-.3 2-.7 2.9-.4.9-.8 1.7-1.3 2.3-.5.7-1.1 1.2-1.7 1.8-.6.5-1.3 1-2 1.3s-1.4.6-2 .9c-.7.3-1.3.5-1.9.6s-1.1.2-1.6.3c-.5.1-.8.1-1.1.2h-.4zM96.4 29l1-26.9 3.8-.4-.3 26.3-4.5 1zM110.6 16.2v-1.6c0-1.2.2-2.3.3-3.4.2-1.1.4-2 .8-2.7.3-.8.7-1.4 1-2.1s.8-1.1 1.2-1.5c.4-.4.8-.8 1.3-1.1.4-.3.8-.6 1.2-.7.4-.2.7-.3 1-.4.3-.1.5-.2.7-.2h.4c1.2.2 2.3.5 3.3 1.2 1 .6 1.8 1.5 2.5 2.6s1.2 2.5 1.6 4.2c.3 1.5.5 3.2.5 5.1v.8c0 1.7-.3 3.3-.6 4.7-.4 1.4-.8 2.6-1.4 3.5-.5.9-1.2 1.7-1.9 2.3-.7.6-1.4 1-2.1 1.3s-1.4.4-2.1.4-1.4-.1-2.1-.3c-.7-.2-1.4-.6-2.1-1.2s-1.3-1.3-1.8-2.2c-.5-.9-.9-2.1-1.3-3.5-.2-1.7-.4-3.3-.4-5.2zM152.1 28.3L154 .9l5.4-.6-1 9.5c.6-.9 1.5-2.4 2.7-4.5 1.2-2 2.2-3.6 2.9-4.7l5.1-.4-8.2 15 7.3 12.8-6.4.2-3.8-8-1.2 8.7-4.7-.6zM177.3 2.5h4.5l-.4 21.5c.7-.1 1.8-.2 3.3-.3 1.5-.1 2.7-.2 3.4-.3l.2 5.4-10.8-.3-.2-26zM195 28.6L205.9.8l8.3 27.3-4.7.2-1.6-7.6-5.7.1-3.3 7.7H195v.1zM222.5 2.3c1.1-.1 2-.2 2.8-.2 1.9 0 3.5.2 4.8.7.1 0 .2 0 .3.1.1 0 .3.1.6.3.3.1.6.3.9.5s.6.5.9.8c.3.3.6.7.8 1.2.2.4.4 1 .6 1.6.2.7.2 1.4.2 2.2 0 1-.2 1.9-.7 2.8-.5.9-1.1 1.6-1.7 2.2-.7.6-1.4 1.1-2 1.5-.7.4-1.3.7-1.7.9l-.7.3c0 1.3 0 3.2-.1 5.8 0 2.6-.1 4.5-.1 5.7l-3.9.2-1-26.6zM244.4 2.3c1.1-.1 2-.2 2.8-.2 1.9 0 3.5.2 4.8.7.1 0 .2 0 .3.1.1 0 .3.1.6.3.3.1.6.3.9.5s.6.5.9.8c.3.3.6.7.8 1.2.2.4.4 1 .6 1.6.2.7.2 1.4.2 2.2 0 1-.2 1.9-.7 2.8-.5.9-1.1 1.6-1.7 2.2-.7.6-1.4 1.1-2 1.5-.7.4-1.3.7-1.7.9l-.7.3c0 1.3 0 3.2-.1 5.8 0 2.6-.1 4.5-.1 5.7l-3.9.2-1-26.6zM266.1 28.3l1.9-27 5.3-.6-1 9.4c.5-.9 1.4-2.3 2.6-4.4 1.2-2 2.2-3.6 2.8-4.7l5.1-.4-8.1 14.8 7.1 12.6-6.3.2-3.8-7.9-1.2 8.5-4.4-.5zM287.8 28.6L298.7.8l8.3 27.3-4.7.2-1.6-7.6-5.7.1-3.3 7.7h-3.9v.1zM310 2.8l15.7-.6-.3 4.2-4.6.3-.2 21.9-4.8.1-.1-21.8-5.2.1-.5-4.2zM332.7 3l16-.1-.1 4.6-10.1 16.1c1.1 0 2.7-.1 5-.1 2.2-.1 3.8-.1 4.8-.1v4.7l-15.1.7.4-6L342.9 8l-9.4.2-.8-5.2zM359 28.2l.2-25.8 10.7-.1-.2 4.8h-6.4c0 .5.1 3.3.2 8.4.5 0 1.3 0 2.5.1 1.1 0 1.9.1 2.3.1v4.2l-4.9-.2v4.2h4.7V29l-9.1-.8z"/><g><path class="st1" d="M126.7 55.8l.4-10.6h1c.3 0 .6.1.9.1.3.1.6.1 1 .3s.6.3.9.4.4.4.6.7c.1.2.2.4.2.7v.3c0 .3-.1.6-.2.8s-.2.5-.4.6-.3.3-.5.5-.3.3-.5.4c-.1.1-.3.2-.5.2-.2.1-.3.1-.3.1s-.1 0-.2.1c.7.1 1.3.4 1.8.8s.7 1 .8 1.8c0 .3-.1.5-.2.7-.1.2-.3.4-.5.6-.2.2-.4.3-.6.5s-.5.3-.8.4c-.3.1-.5.2-.8.3s-.5.1-.8.2c-.2 0-.5.1-.6.1s-.3 0-.4.1l-.3-.1zM134.9 55.5l.1-9.5 4-.1-.1 1.8h-2.4c0 .2 0 1.2.1 3.1h1.8v1.6l-1.8-.1V54h1.7v1.9l-3.4-.4zM143.2 55.7l.1-9.8c1.6 0 2.6.1 2.8.2 0 0 .1 0 .2.1.1 0 .2.1.4.2s.4.3.5.4c.1.2.3.4.4.7.1.3.1.6.1.9v.2c0 .3-.1.6-.2.9s-.2.5-.3.8c-.1.2-.2.4-.4.6-.1.2-.2.3-.3.4l-.1.1 2.2 4.3-2-.2-1.7-3-.4 3.2h-1.3zM151.8 46.1h1.7l-.2 7.9c.2 0 .7-.1 1.2-.1.6 0 1-.1 1.3-.1l.1 2-4-.1-.1-9.6zM159.3 55.9l.4-9.9 1.4-.2-.1 9.7-1.7.4zM165.1 55.6l.2-9.2 1.6-.4 2 6.5.5-6.5 1.6.2-.5 9.3-2.2.2-1.5-4.4c-.1 2.9-.2 4.4-.2 4.6l-1.5-.3zM173.2 55.7l3.5-10.1h1.7l-3.7 10-1.5.1zM180.8 55.6l.1-9.5 1.6-.4 2.1 6.6.5-7.1 1.6.2-.5 10.1-2.2.2-1.4-4c0 .5-.1 1.3-.1 2.2-.1 1-.1 1.6-.1 1.9l-1.6-.2zM190.9 55.5l.1-9.5 4-.1-.1 1.8h-2.4c0 .2 0 1.2.1 3.1h1.8v1.6l-1.8-.1V54h1.7v1.9l-3.4-.4zM198.7 51.7v-.2l.2-5.3h1.4c-.1 3-.1 4.8-.1 5.3 0 .2 0 .4.1.6.1.2.1.5.2.7s.3.4.5.6c.2.2.4.2.7.2.2 0 .4-.1.6-.2s.3-.3.4-.5l.3-.6s.1-.4.1-.5 0-.2.1-.3l.3-5.5 1.7.2c-.1 2.2-.2 3.9-.3 5.1-.1.3-.1.7-.2 1.1s-.2.8-.3 1.1c-.2.4-.4.8-.6 1.1s-.5.6-.9.8c-.3.2-.7.3-1.1.4-.4 0-.7-.1-1-.2s-.6-.4-.7-.6c-.2-.3-.4-.5-.5-.8l-.3-.9s-.1-.6-.1-.8c-.4-.4-.4-.6-.5-.8zM208.5 55.6l.7-9.9 1.9-.2-.4 3.5c.2-.3.5-.9 1-1.6s.8-1.3 1-1.7l1.9-.1-3 5.4 2.6 4.6-2.3.1-1.4-2.9-.4 3.1-1.6-.3zM217.6 51.1v-.6c0-.4.1-.9.1-1.3s.2-.7.3-1 .2-.5.4-.8.3-.4.4-.6c.2-.1.3-.3.5-.4.2-.1.3-.2.4-.3s.3-.1.4-.1c.1 0 .2-.1.3-.1h.2c.5.1.9.2 1.2.4s.7.5.9.9c.3.4.5.9.6 1.5s.2 1.3.2 2.2c0 .6-.1 1.2-.2 1.7s-.3.9-.5 1.3c-.2.3-.4.6-.7.8s-.5.4-.8.5-.5.1-.8.1-.5 0-.7-.1-.5-.2-.7-.4-.5-.5-.7-.8-.3-.8-.5-1.3c-.2-.3-.3-.9-.3-1.6zm.9-6.5c0-.3.1-.5.3-.7s.4-.3.7-.3.5.1.6.2c.1.2.2.4.2.7s-.1.5-.2.7c-.2.2-.4.3-.6.3-.3 0-.5-.1-.7-.3-.2-.1-.3-.4-.3-.6zm2.3 0c0-.2.1-.5.3-.6s.4-.3.7-.3.4.1.6.2.2.4.2.6c0 .2-.1.5-.2.6-.2.2-.4.3-.6.3s-.5-.1-.7-.3-.3-.3-.3-.5zM227.4 46.1h1.7L229 54c.2 0 .7-.1 1.2-.1.6 0 1-.1 1.3-.1l.1 2-4-.1-.2-9.6zM234.5 46.1h1.7L236 54c.2 0 .7-.1 1.2-.1.6 0 1-.1 1.3-.1l.1 2-4-.1-.1-9.6zM241.6 55.6l.2-9.2 1.6-.4 2 6.5.6-6.5 1.6.2-.5 9.3-2.2.2-1.5-4.4c-.1 2.9-.2 4.4-.2 4.6l-1.6-.3z"/></g><path id="_x3C_Slice_x3E__1_" class="st2" d="M0 0h371v56H0z"/></svg>